C:\Users\movea\Dropbox\PhDWork\ExperimentalData\subject7\100\P7S100W04_filtered35.mot
nRows=11
nColumns=28

name C:\Users\movea\Dropbox\PhDWork\ExperimentalData\subject7\100\P7S100W04_filtered35.mot
datacolumns 28
datarows 11
range 1.7620000000 1.7720000000
endheader
time	ground_force_1_vx	ground_force_1_vy	ground_force_1_vz	ground_force_1_px	ground_force_1_py	ground_force_1_pz	ground_moment_1_mx	ground_moment_1_my	ground_moment_1_mz	ground_force_2_vx	ground_force_2_vy	ground_force_2_vz	ground_force_2_px	ground_force_2_py	ground_force_2_pz	ground_moment_2_mx	ground_moment_2_my	ground_moment_2_mz	ground_force_3_vx	ground_force_3_vy	ground_force_3_vz	ground_force_3_px	ground_force_3_py	ground_force_3_pz	ground_moment_3_mx	ground_moment_3_my	ground_moment_3_mz
        1.7620000000	       15.7283123392	      147.8438816065	      -28.6310354508	        0.1988394958	        0.0000558755	       -0.3004071327	       21.4664211834	       -4.1890124735	       -6.8124236964	       -0.0000000000	        0.0000000000	        0.0000000000	        0.2029003516	       -0.0000795827	        0.4543649445	        0.0000000000	        0.0000000000	       -0.0000000000	        0.0000000000	        0.0000000000	        0.0000000000	        0.2076431971	        0.0000770316	        1.3583900146	        0.0000000000	       -0.0000000000	       -0.0000000000	
        1.7630000000	       14.8961126484	      142.0169266827	      -26.7287559234	        0.1988394958	        0.0000558755	       -0.3004071327	       20.7522083632	       -3.9642277006	       -6.5004368983	       -0.0000000000	        0.0000000000	        0.0000000000	        0.2029003516	       -0.0000795827	        0.4543649445	        0.0000000000	        0.0000000000	       -0.0000000000	        0.0000000000	        0.0000000000	        0.0000000000	        0.2076431971	        0.0000770316	        1.3583900146	        0.0000000000	       -0.0000000000	       -0.0000000000	
        1.7640000000	       14.0357962525	      136.2972486839	      -24.9052048773	        0.1988394958	        0.0000558755	       -0.3004071327	       20.0415693405	       -3.7417607060	       -6.1944659863	       -0.0000000000	        0.0000000000	        0.0000000000	        0.2029003516	       -0.0000795827	        0.4543649445	        0.0000000000	        0.0000000000	       -0.0000000000	        0.0000000000	        0.0000000000	        0.0000000000	        0.2076431971	        0.0000770316	        1.3583900146	        0.0000000000	       -0.0000000000	       -0.0000000000	
        1.7650000000	       13.1537669167	      130.6890755482	      -23.1502769621	        0.1988394958	        0.0000558755	       -0.3004071327	       19.3369538692	       -3.5223550245	       -5.8958076126	       -0.0000000000	        0.0000000000	        0.0000000000	        0.2029003516	       -0.0000795827	        0.4543649445	        0.0000000000	        0.0000000000	       -0.0000000000	        0.0000000000	        0.0000000000	        0.0000000000	        0.2076431971	        0.0000770316	        1.3583900146	        0.0000000000	       -0.0000000000	       -0.0000000000	
        1.7660000000	       12.2571779250	      125.2000525345	      -21.4536254579	        0.1988394958	        0.0000558755	       -0.3004071327	       18.6412162028	       -3.3067400420	       -5.6055956669	       -0.0000000000	        0.0000000000	        0.0000000000	        0.2029003516	       -0.0000795827	        0.4543649445	        0.0000000000	        0.0000000000	       -0.0000000000	        0.0000000000	        0.0000000000	        0.0000000000	        0.2076431971	        0.0000770316	        1.3583900146	        0.0000000000	       -0.0000000000	       -0.0000000000	
        1.7670000000	       11.3537098261	      119.8400498433	      -19.8060815263	        0.1988394958	        0.0000558755	       -0.3004071327	       17.9574458829	       -3.0956102901	       -5.3245267103	       -0.0000000000	        0.0000000000	        0.0000000000	        0.2029003516	       -0.0000795827	        0.4543649445	        0.0000000000	        0.0000000000	       -0.0000000000	        0.0000000000	        0.0000000000	        0.0000000000	        0.2076431971	        0.0000770316	        1.3583900146	        0.0000000000	       -0.0000000000	       -0.0000000000	
        1.7680000000	       10.4514965801	      114.6187627830	      -18.2004119335	        0.1988394958	        0.0000558755	       -0.3004071327	       17.2887279453	       -2.8895090727	       -5.0530194601	       -0.0000000000	        0.0000000000	        0.0000000000	        0.2029003516	       -0.0000795827	        0.4543649445	        0.0000000000	        0.0000000000	       -0.0000000000	        0.0000000000	        0.0000000000	        0.0000000000	        0.2076431971	        0.0000770316	        1.3583900146	        0.0000000000	       -0.0000000000	       -0.0000000000	
        1.7690000000	        9.5586757335	      109.5451227941	      -16.6316569257	        0.1988394958	        0.0000558755	       -0.3004071327	       16.6378482382	       -2.6887874771	       -4.7916264767	       -0.0000000000	        0.0000000000	        0.0000000000	        0.2029003516	       -0.0000795827	        0.4543649445	        0.0000000000	        0.0000000000	       -0.0000000000	        0.0000000000	        0.0000000000	       -0.0000000000	        0.2076431971	        0.0000770316	        1.3583900146	        0.0000000000	       -0.0000000000	        0.0000000000	
        1.7700000000	        8.6827719939	      104.6297438412	      -15.0968018780	        0.1988394958	        0.0000558755	       -0.3004071327	       16.0072166381	       -2.4936959171	       -4.5410747562	       -0.0000000000	        0.0000000000	        0.0000000000	        0.2029003516	       -0.0000795827	        0.4543649445	        0.0000000000	        0.0000000000	       -0.0000000000	       -0.0000000000	        0.0000000000	       -0.0000000000	        0.2076431971	        0.0000770316	        1.3583900146	       -0.0000000000	       -0.0000000000	        0.0000000000	
        1.7710000000	        7.8301247624	       99.8881717910	      -13.5938132137	        0.1988394958	        0.0000558755	       -0.3004071327	       15.3989920098	       -2.3045386905	       -4.3019699599	       -0.0000000000	        0.0000000000	        0.0000000000	        0.2029003516	       -0.0000795827	        0.4543649445	        0.0000000000	        0.0000000000	       -0.0000000000	       -0.0000000000	        0.0000000000	       -0.0000000000	        0.2076431971	        0.0000770316	        1.3583900146	       -0.0000000000	        0.0000000000	        0.0000000000	
        1.7720000000	        7.0056363347	       95.3406463834	      -12.1204768614	        0.1988394958	        0.0000558755	       -0.3004071327	       14.8151529849	       -2.1217823652	       -4.0746921294	       -0.0000000000	        0.0000000000	        0.0000000000	        0.2029003516	       -0.0000795827	        0.4543649445	        0.0000000000	        0.0000000000	       -0.0000000000	       -0.0000000000	        0.0000000000	       -0.0000000000	        0.2076431971	        0.0000770316	        1.3583900146	       -0.0000000000	        0.0000000000	        0.0000000000	
